<?xml version="1.0" encoding="UTF-8"?>
<svg id="katman_1" data-name="katman 1" xmlns="http://www.w3.org/2000/svg" viewBox="0 0 285.97 285.97">
  <defs>
    <style>
      .cls-1 {
        fill: #caab6a;
      }

      .cls-2 {
        fill: #fff;
      }

      .cls-3 {
        fill: #fcf8ea;
      }
    </style>
  </defs>
  <path class="cls-1" d="M150.54,7.71l14.69,1.75c63.77,10.47,111.57,65.54,112.96,130.25.05,2.15.04,4.33,0,6.48-1.51,72.09-59.93,130.47-131.97,132-2.15.05-4.33.05-6.48,0-64.68-1.37-119.75-49.21-130.22-112.99l-1.75-14.45c.16-4.78-.21-9.62,0-14.4C10.8,67.9,67.04,11.3,135.42,7.71h15.12ZM250.84,193.47c.34-.02.37-.37.48-.59,8.78-16.99,12.02-41.08,10.55-60.01-1.68-21.59-9.94-42.83-22.55-60.25-.26-.21-.46-.12-.72,0-.32.15-2.07,1.93-2.67,2.38-19.55,14.71-48.82,9.26-60.81-12.33-5.73-10.31-6.14-21.64-2.82-32.83.21-.71,1.21-2.02.38-2.4-3.35-.77-6.7-1.59-10.1-2.14-17.25-2.8-43,.39-56.44,12.53-8.98,8.11-13.33,23.67-7.24,34.6,5.57,10,21.24,18.91,31.23,24.2,17.9,9.49,36.45,17.8,54.15,27.67,28.34,15.81,57.69,35.96,66.54,69.16ZM188.23,32.93c-.59.42-1.87,7.16-1.94,8.26-1.31,19.22,18.25,31.53,35.35,23.84,1.41-.63,6.13-3.53,6.77-4.77.15-.28.11-.4-.12-.61-9.2-9.36-19.93-17.37-31.68-23.28-1.07-.54-7.83-3.85-8.38-3.45ZM85.51,38.67c-.47-.44-9.96,5.96-10.97,6.66-8.55,5.99-16.35,13.13-22.98,21.19,2.58,52.77,57.8,70.18,97.06,90.58,31.31,16.27,71.93,40.42,58.17,82.44-.53,1.63-1.58,3.45-2.03,4.93-.1.33.02.43.35.35,12.69-7.87,23.97-17.99,32.94-29.93-.47-24.02-13.32-43-31.64-57.28-23.86-18.6-53.37-30.96-80.12-44.9-23.64-12.32-49.87-26.95-45.79-58.05.72-5.5,2.47-11.09,5.01-15.99ZM107.36,256.81c13.48,4.25,27.72,5.88,41.87,5.31,21.69-.88,43.14-14.34,44.27-37.8.85-17.66-15.81-30.98-29.16-39.73-41.96-27.52-104.14-40.07-123.63-91.86-.81-2.14-1.35-4.38-2.11-6.54-.08-.23-.03-.55-.35-.48-12.56,23.49-17.18,50.43-12.89,76.85,2.91,17.97,10.23,35,20.6,49.84.53.31,3.33-1.67,4.04-2.01,19.28-9.48,42.21-3.03,53.52,15.12,6.07,9.75,6.78,20.3,3.84,31.31ZM92.23,250.83c1.59-6.76.78-12.59-3.26-18.22-7.55-10.54-20.66-13.08-32.25-7.7-.1.36.1.4.24.6.83,1.2,3.82,3.91,5.04,5.04,8.89,8.26,19.25,15.13,30.23,20.28Z"/>
  <path class="cls-2" d="M278.43,146.19v132.24h-132.21v-.24c72.04-1.53,130.46-59.91,131.97-132h.24Z"/>
  <path class="cls-2" d="M150.54,7.71h127.89v132h-.24c-1.39-64.71-49.19-119.78-112.96-130.25l-14.69-1.75Z"/>
  <path class="cls-2" d="M139.74,278.19v.24H7.77v-127.68l1.75,14.45c10.46,63.78,65.53,111.62,130.22,112.99Z"/>
  <path class="cls-2" d="M135.42,7.71C67.04,11.3,10.8,67.9,7.77,136.35V7.71h127.65Z"/>
  <path class="cls-3" d="M278.43,146.19h-.24c.04-2.15.05-4.33,0-6.48h.24v6.48Z"/>
  <path class="cls-3" d="M146.22,278.19v.24h-6.48v-.24c2.15.05,4.33.05,6.48,0Z"/>
  <path class="cls-3" d="M107.36,256.81c2.94-11.01,2.23-21.56-3.84-31.31-11.3-18.14-34.24-24.6-53.52-15.12-.71.35-3.51,2.32-4.04,2.01-10.37-14.84-17.69-31.87-20.6-49.84-4.29-26.42.33-53.36,12.89-76.85.32-.07.27.25.35.48.75,2.16,1.3,4.4,2.11,6.54,19.49,51.79,81.67,64.34,123.63,91.86,13.35,8.75,30.01,22.08,29.16,39.73-1.13,23.46-22.58,36.92-44.27,37.8-14.15.57-28.39-1.06-41.87-5.31Z"/>
  <path class="cls-3" d="M250.84,193.47c-8.86-33.2-38.2-53.35-66.54-69.16-17.7-9.88-36.25-18.18-54.15-27.67-9.98-5.29-25.65-14.2-31.23-24.2-6.09-10.94-1.74-26.49,7.24-34.6,13.44-12.14,39.19-15.33,56.44-12.53,3.4.55,6.75,1.37,10.1,2.14.83.38-.17,1.69-.38,2.4-3.31,11.19-2.9,22.52,2.82,32.83,11.98,21.59,41.26,27.04,60.81,12.33.6-.45,2.35-2.23,2.67-2.38.26-.12.47-.21.72,0,12.61,17.43,20.87,38.66,22.55,60.25,1.47,18.92-1.77,43.02-10.55,60.01-.12.22-.14.57-.48.59Z"/>
  <path class="cls-3" d="M85.51,38.67c-2.54,4.9-4.29,10.49-5.01,15.99-4.08,31.11,22.15,45.73,45.79,58.05,26.75,13.94,56.26,26.3,80.12,44.9,18.32,14.28,31.17,33.26,31.64,57.28-8.97,11.94-20.26,22.06-32.94,29.93-.33.08-.45-.02-.35-.35.45-1.48,1.49-3.3,2.03-4.93,13.76-42.02-26.86-66.17-58.17-82.44-39.26-20.4-94.48-37.81-97.06-90.58,6.63-8.05,14.43-15.2,22.98-21.19,1.01-.71,10.5-7.1,10.97-6.66Z"/>
  <path class="cls-3" d="M188.23,32.93c.55-.4,7.31,2.92,8.38,3.45,11.75,5.91,22.48,13.92,31.68,23.28.23.21.27.32.12.61-.64,1.24-5.36,4.13-6.77,4.77-17.11,7.69-36.67-4.62-35.35-23.84.08-1.1,1.35-7.84,1.94-8.26Z"/>
  <path class="cls-3" d="M92.23,250.83c-10.98-5.14-21.34-12.02-30.23-20.28-1.22-1.13-4.21-3.84-5.04-5.04-.14-.2-.33-.24-.24-.6,11.59-5.38,24.7-2.84,32.25,7.7,4.04,5.63,4.85,11.46,3.26,18.22Z"/>
</svg>