<?xml version="1.0" encoding="UTF-8"?>
<svg id="katman_1" data-name="katman 1" xmlns="http://www.w3.org/2000/svg" viewBox="0 0 285.97 285.97">
  <defs>
    <style>
      .cls-1 {
        fill: #caab6a;
      }

      .cls-2 {
        fill: #fcf8ea;
      }
    </style>
  </defs>
  <path class="cls-2" d="M182.8,272.14l.07.23-6.23,1.77-.07-.23c2.08-.54,4.18-1.14,6.23-1.77Z"/>
  <g>
    <path class="cls-1" d="M113.44,10.82l14.61-2.32c64.23-7.31,125.23,32.66,144.2,94.54.63,2.05,1.22,4.16,1.77,6.23,18.19,69.77-22.13,141.87-91.04,162.97-2.05.63-4.16,1.22-6.23,1.77-62.63,16.31-128.66-14.72-156.11-73.23l-5.62-13.43c-1.15-4.64-2.83-9.2-3.92-13.86C-4.65,106.82,34.05,37.03,98.89,14.94l14.55-4.12ZM260.58,162.21c.32-.11.25-.45.31-.7,3.82-18.73.37-42.8-6.2-60.61-7.5-20.32-21.23-38.5-38.12-51.83-.3-.13-.47.01-.69.2-.26.23-1.46,2.42-1.92,3.02-14.81,19.48-44.46,22.21-61.88,4.71-8.32-8.36-11.8-19.15-11.66-30.82,0-.74.61-2.28-.29-2.41-3.43.17-6.88.3-10.3.69-17.37,2.01-41.28,12.09-50.9,27.43-6.43,10.25-6.38,26.4,2.46,35.27,8.09,8.11,25.6,12.4,36.65,14.78,19.82,4.26,39.93,7.19,59.66,11.87,31.58,7.49,65.32,18.88,82.89,48.41ZM156.59,24.81c-.45.57.16,7.4.38,8.48,3.97,18.85,26.15,25.37,40.52,13.31,1.19-1,4.94-5.07,5.21-6.43.06-.31,0-.42-.28-.55-11.41-6.5-23.91-11.28-36.83-13.76-1.18-.23-8.58-1.57-9.01-1.04ZM59.29,58.33c-.57-.29-7.96,8.45-8.74,9.4-6.6,8.09-12.15,17.09-16.34,26.65,16.86,50.07,74.75,51.78,118.09,60.7,34.56,7.12,80.24,19.29,78.44,63.46-.07,1.71-.58,3.75-.61,5.3,0,.35.14.4.43.24,10.07-11.03,18.17-23.84,23.55-37.77-7-22.98-24.54-37.74-46.06-46.49-28.03-11.39-59.8-15.24-89.34-21.37-26.11-5.41-55.34-12.34-59.89-43.38-.8-5.48-.65-11.34.46-16.75ZM139.75,262.26c14.13.42,28.28-1.9,41.74-6.3,20.63-6.76,37.61-25.56,32.3-48.44-3.99-17.22-23.66-25.5-38.89-30.29-47.88-15.04-111.14-10.17-144.01-54.69-1.36-1.84-2.5-3.85-3.81-5.72-.14-.2-.18-.52-.47-.37-5.69,26.02-2.79,53.2,8.53,77.45,7.7,16.5,19.38,30.89,33.4,42.34.59.15,2.75-2.51,3.34-3.04,15.97-14.37,39.8-14.42,55.62-.04,8.5,7.72,12.06,17.69,12.23,29.08ZM123.56,260.63c-.31-6.93-2.68-12.32-8.1-16.64-10.14-8.08-23.45-6.95-33.14,1.38,0,.38.2.36.39.51,1.12.93,4.74,2.72,6.22,3.48,10.81,5.52,22.65,9.31,34.62,11.27Z"/>
    <path class="cls-2" d="M274.25,109.21l-.23.07c-.54-2.08-1.14-4.18-1.77-6.23l.23-.07,1.77,6.23Z"/>
    <path class="cls-2" d="M139.75,262.26c-.17-11.39-3.73-21.35-12.23-29.08-15.82-14.38-39.66-14.34-55.62.04-.58.53-2.75,3.19-3.34,3.04-14.02-11.45-25.7-25.84-33.4-42.34-11.32-24.25-14.23-51.43-8.53-77.45.29-.16.33.17.47.37,1.31,1.87,2.45,3.88,3.81,5.72,32.87,44.51,96.13,39.65,144.01,54.69,15.23,4.78,34.89,13.06,38.89,30.29,5.31,22.88-11.67,41.68-32.3,48.44-13.46,4.41-27.61,6.72-41.74,6.3Z"/>
    <path class="cls-2" d="M260.58,162.21c-17.57-29.53-51.3-40.92-82.89-48.41-19.73-4.68-39.84-7.61-59.66-11.87-11.05-2.37-28.56-6.67-36.65-14.78-8.84-8.86-8.89-25.02-2.46-35.27,9.63-15.34,33.54-25.43,50.9-27.43,3.42-.4,6.87-.52,10.3-.69.9.14.3,1.67.29,2.41-.14,11.67,3.34,22.46,11.66,30.82,17.42,17.51,47.07,14.77,61.88-4.71.45-.59,1.65-2.79,1.92-3.02.22-.19.39-.33.69-.2,16.89,13.33,30.62,31.51,38.12,51.83,6.57,17.81,10.02,41.87,6.2,60.61-.05.25.02.59-.31.7Z"/>
    <path class="cls-2" d="M59.29,58.33c-1.11,5.4-1.27,11.26-.46,16.75,4.55,31.04,33.78,37.96,59.89,43.38,29.54,6.13,61.31,9.97,89.34,21.37,21.53,8.75,39.06,23.51,46.06,46.49-5.38,13.93-13.49,26.75-23.55,37.77-.3.16-.44.11-.43-.24.03-1.55.54-3.59.61-5.3,1.79-44.18-43.88-56.34-78.44-63.46-43.34-8.93-101.23-10.63-118.09-60.7,4.19-9.56,9.75-18.55,16.34-26.65.78-.96,8.17-9.7,8.74-9.4Z"/>
    <path class="cls-2" d="M156.59,24.81c.42-.53,7.83.81,9.01,1.04,12.92,2.48,25.43,7.26,36.83,13.76.28.13.34.24.28.55-.28,1.36-4.03,5.44-5.21,6.43-14.37,12.06-36.55,5.54-40.52-13.31-.23-1.08-.84-7.91-.38-8.48Z"/>
    <path class="cls-2" d="M123.56,260.63c-11.97-1.96-23.81-5.74-34.62-11.27-1.48-.76-5.1-2.55-6.22-3.48-.19-.16-.39-.14-.39-.51,9.69-8.34,22.99-9.46,33.14-1.38,5.42,4.32,7.79,9.71,8.1,16.64Z"/>
  </g>
</svg>
